HIERARCHY
ROOT Hips
{
  OFFSET -274.024 67.2248 878.513
  CHANNELS 6 Xposition Yposition Zposition Zrotation Xrotation Yrotation
  JOINT Spine
  {
    OFFSET 0 8 0
    CHANNELS 6 Xposition Yposition Zposition Zrotation Xrotation Yrotation
    JOINT Spine1
    {
      OFFSET 0 8 0
      CHANNELS 6 Xposition Yposition Zposition Zrotation Xrotation Yrotation
      JOINT Spine2
      {
        OFFSET 0 8 0
        CHANNELS 6 Xposition Yposition Zposition Zrotation Xrotation Yrotation
        JOINT Spine3
        {
          OFFSET 0 8 0
          CHANNELS 6 Xposition Yposition Zposition Zrotation Xrotation Yrotation
          JOINT Neck
          {
            OFFSET 0 17 0
            CHANNELS 6 Xposition Yposition Zposition Zrotation Xrotation Yrotation
            JOINT Head
            {
              OFFSET 0 10.8 0
              CHANNELS 6 Xposition Yposition Zposition Zrotation Xrotation Yrotation
              End Site
              {
                OFFSET 0 20.25 0
              }
            }
          }
          JOINT LeftShoulder
          {
            OFFSET 5 17 0
            CHANNELS 6 Xposition Yposition Zposition Zrotation Xrotation Yrotation
            JOINT LeftShoulder2
            {
              OFFSET 6.45 0 0
              CHANNELS 6 Xposition Yposition Zposition Zrotation Xrotation Yrotation
              JOINT LeftArm
              {
                OFFSET 6.45 0 0
                CHANNELS 6 Xposition Yposition Zposition Zrotation Xrotation Yrotation
                JOINT LeftForeArm
                {
                  OFFSET 0 -32.4 -2
                  CHANNELS 6 Xposition Yposition Zposition Zrotation Xrotation Yrotation
                  JOINT LeftHand
                  {
                    OFFSET 0 -25.65 2
                    CHANNELS 6 Xposition Yposition Zposition Zrotation Xrotation Yrotation
                    JOINT LeftHandThumb1
                    {
                      OFFSET -0.5 -1.5 2.65
                      CHANNELS 6 Xposition Yposition Zposition Zrotation Xrotation Yrotation
                      JOINT LeftHandThumb2
                      {
                        OFFSET 0 -3.8 3.7
                        CHANNELS 6 Xposition Yposition Zposition Zrotation Xrotation Yrotation
                        JOINT LeftHandThumb3
                        {
                          OFFSET 0 -3 2.7
                          CHANNELS 6 Xposition Yposition Zposition Zrotation Xrotation Yrotation
                          End Site
                          {
                            OFFSET 0 -2.3 1.8
                          }
                        }
                      }
                    }
                    JOINT LeftHandIndex
                    {
                      OFFSET 0 -1.9 1.6
                      CHANNELS 6 Xposition Yposition Zposition Zrotation Xrotation Yrotation
                      JOINT LeftHandIndex1
                      {
                        OFFSET 0 -8.3 1.9
                        CHANNELS 6 Xposition Yposition Zposition Zrotation Xrotation Yrotation
                        JOINT LeftHandIndex2
                        {
                          OFFSET 0 -4.5 0
                          CHANNELS 6 Xposition Yposition Zposition Zrotation Xrotation Yrotation
                          JOINT LeftHandIndex3
                          {
                            OFFSET 0 -3.4 0
                            CHANNELS 6 Xposition Yposition Zposition Zrotation Xrotation Yrotation
                            End Site
                            {
                              OFFSET 0 -2.6 0
                            }
                          }
                        }
                      }
                    }
                    JOINT LeftHandMiddle
                    {
                      OFFSET -0.25 -2.2 0.4
                      CHANNELS 6 Xposition Yposition Zposition Zrotation Xrotation Yrotation
                      JOINT LeftHandMiddle1
                      {
                        OFFSET 0 -8.3 1
                        CHANNELS 6 Xposition Yposition Zposition Zrotation Xrotation Yrotation
                        JOINT LeftHandMiddle2
                        {
                          OFFSET 0 -4.65 0
                          CHANNELS 6 Xposition Yposition Zposition Zrotation Xrotation Yrotation
                          JOINT LeftHandMiddle3
                          {
                            OFFSET 0 -3.3 0
                            CHANNELS 6 Xposition Yposition Zposition Zrotation Xrotation Yrotation
                            End Site
                            {
                              OFFSET 0 -2.7 0
                            }
                          }
                        }
                      }
                    }
                    JOINT LeftHandRing
                    {
                      OFFSET -0.5 -2.15 -0.8
                      CHANNELS 6 Xposition Yposition Zposition Zrotation Xrotation Yrotation
                      JOINT LeftHandRing1
                      {
                        OFFSET 0 -7.75 -0.2
                        CHANNELS 6 Xposition Yposition Zposition Zrotation Xrotation Yrotation
                        JOINT LeftHandRing2
                        {
                          OFFSET 0 -3.8 0
                          CHANNELS 6 Xposition Yposition Zposition Zrotation Xrotation Yrotation
                          JOINT LeftHandRing3
                          {
                            OFFSET 0 -3.4 0
                            CHANNELS 6 Xposition Yposition Zposition Zrotation Xrotation Yrotation
                            End Site
                            {
                              OFFSET 0 -2.6 0
                            }
                          }
                        }
                      }
                    }
                    JOINT LeftHandPinky
                    {
                      OFFSET -0.75 -1.75 -1.85
                      CHANNELS 6 Xposition Yposition Zposition Zrotation Xrotation Yrotation
                      JOINT LeftHandPinky1
                      {
                        OFFSET 0 -7.15 -1
                        CHANNELS 6 Xposition Yposition Zposition Zrotation Xrotation Yrotation
                        JOINT LeftHandPinky2
                        {
                          OFFSET 0 -3 0
                          CHANNELS 6 Xposition Yposition Zposition Zrotation Xrotation Yrotation
                          JOINT LeftHandPinky3
                          {
                            OFFSET 0 -2.35 0
                            CHANNELS 6 Xposition Yposition Zposition Zrotation Xrotation Yrotation
                            End Site
                            {
                              OFFSET 0 -2.1 0
                            }
                          }
                        }
                      }
                    }
                  }
                }
              }
            }
          }
          JOINT RightShoulder
          {
            OFFSET -5 17 0
            CHANNELS 6 Xposition Yposition Zposition Zrotation Xrotation Yrotation
            JOINT RightShoulder2
            {
              OFFSET -6.45 0 0
              CHANNELS 6 Xposition Yposition Zposition Zrotation Xrotation Yrotation
              JOINT RightArm
              {
                OFFSET -6.45 0 0
                CHANNELS 6 Xposition Yposition Zposition Zrotation Xrotation Yrotation
                JOINT RightForeArm
                {
                  OFFSET 0 -32.4 -2
                  CHANNELS 6 Xposition Yposition Zposition Zrotation Xrotation Yrotation
                  JOINT RightHand
                  {
                    OFFSET 0 -25.65 2
                    CHANNELS 6 Xposition Yposition Zposition Zrotation Xrotation Yrotation
                    JOINT RightHandThumb1
                    {
                      OFFSET 0.5 -1.5 2.65
                      CHANNELS 6 Xposition Yposition Zposition Zrotation Xrotation Yrotation
                      JOINT RightHandThumb2
                      {
                        OFFSET 0 -3.8 3.7
                        CHANNELS 6 Xposition Yposition Zposition Zrotation Xrotation Yrotation
                        JOINT RightHandThumb3
                        {
                          OFFSET 0 -3 2.7
                          CHANNELS 6 Xposition Yposition Zposition Zrotation Xrotation Yrotation
                          End Site
                          {
                            OFFSET 0 -2.3 1.8
                          }
                        }
                      }
                    }
                    JOINT RightHandIndex
                    {
                      OFFSET 0 -1.9 1.6
                      CHANNELS 6 Xposition Yposition Zposition Zrotation Xrotation Yrotation
                      JOINT RightHandIndex1
                      {
                        OFFSET 0 -8.3 1.9
                        CHANNELS 6 Xposition Yposition Zposition Zrotation Xrotation Yrotation
                        JOINT RightHandIndex2
                        {
                          OFFSET 0 -4.5 0
                          CHANNELS 6 Xposition Yposition Zposition Zrotation Xrotation Yrotation
                          JOINT RightHandIndex3
                          {
                            OFFSET 0 -3.4 0
                            CHANNELS 6 Xposition Yposition Zposition Zrotation Xrotation Yrotation
                            End Site
                            {
                              OFFSET 0 -2.6 0
                            }
                          }
                        }
                      }
                    }
                    JOINT RightHandMiddle
                    {
                      OFFSET 0.25 -2.2 0.4
                      CHANNELS 6 Xposition Yposition Zposition Zrotation Xrotation Yrotation
                      JOINT RightHandMiddle1
                      {
                        OFFSET 0 -8.3 1
                        CHANNELS 6 Xposition Yposition Zposition Zrotation Xrotation Yrotation
                        JOINT RightHandMiddle2
                        {
                          OFFSET 0 -4.65 0
                          CHANNELS 6 Xposition Yposition Zposition Zrotation Xrotation Yrotation
                          JOINT RightHandMiddle3
                          {
                            OFFSET 0 -3.3 0
                            CHANNELS 6 Xposition Yposition Zposition Zrotation Xrotation Yrotation
                            End Site
                            {
                              OFFSET 0 -2.7 0
                            }
                          }
                        }
                      }
                    }
                    JOINT RightHandRing
                    {
                      OFFSET 0.5 -2.15 -0.8
                      CHANNELS 6 Xposition Yposition Zposition Zrotation Xrotation Yrotation
                      JOINT RightHandRing1
                      {
                        OFFSET 0 -7.75 -0.2
                        CHANNELS 6 Xposition Yposition Zposition Zrotation Xrotation Yrotation
                        JOINT RightHandRing2
                        {
                          OFFSET 0 -3.8 0
                          CHANNELS 6 Xposition Yposition Zposition Zrotation Xrotation Yrotation
                          JOINT RightHandRing3
                          {
                            OFFSET 0 -3.4 0
                            CHANNELS 6 Xposition Yposition Zposition Zrotation Xrotation Yrotation
                            End Site
                            {
                              OFFSET 0 -2.6 0
                            }
                          }
                        }
                      }
                    }
                    JOINT RightHandPinky
                    {
                      OFFSET 0.75 -1.75 -1.85
                      CHANNELS 6 Xposition Yposition Zposition Zrotation Xrotation Yrotation
                      JOINT RightHandPinky1
                      {
                        OFFSET 0 -7.15 -1
                        CHANNELS 6 Xposition Yposition Zposition Zrotation Xrotation Yrotation
                        JOINT RightHandPinky2
                        {
                          OFFSET 0 -3 0
                          CHANNELS 6 Xposition Yposition Zposition Zrotation Xrotation Yrotation
                          JOINT RightHandPinky3
                          {
                            OFFSET 0 -2.35 0
                            CHANNELS 6 Xposition Yposition Zposition Zrotation Xrotation Yrotation
                            End Site
                            {
                              OFFSET 0 -2.1 0
                            }
                          }
                        }
                      }
                    }
                  }
                }
              }
            }
          }
        }
      }
    }
  }
  JOINT LeftUpLeg
  {
    OFFSET 8 0 0
    CHANNELS 6 Xposition Yposition Zposition Zrotation Xrotation Yrotation
    JOINT LeftLeg
    {
      OFFSET 0 -45 -1
      CHANNELS 6 Xposition Yposition Zposition Zrotation Xrotation Yrotation
      JOINT LeftFoot
      {
        OFFSET 0 -41 -2
        CHANNELS 6 Xposition Yposition Zposition Zrotation Xrotation Yrotation
        JOINT LeftToeBase
        {
          OFFSET 0 -7.5 12.5
          CHANNELS 6 Xposition Yposition Zposition Zrotation Xrotation Yrotation
          JOINT LeftFootToe
          {
            OFFSET 0 0 4
            CHANNELS 6 Xposition Yposition Zposition Zrotation Xrotation Yrotation
            End Site
            {
              OFFSET 0 0 0
            }
          }
        }
      }
    }
  }
  JOINT RightUpLeg
  {
    OFFSET -8 0 0
    CHANNELS 6 Xposition Yposition Zposition Zrotation Xrotation Yrotation
    JOINT RightLeg
    {
      OFFSET 0 -45 -1
      CHANNELS 6 Xposition Yposition Zposition Zrotation Xrotation Yrotation
      JOINT RightFoot
      {
        OFFSET 0 -41 -2
        CHANNELS 6 Xposition Yposition Zposition Zrotation Xrotation Yrotation
        JOINT RightToeBase
        {
          OFFSET 0 -7.5 12.5
          CHANNELS 6 Xposition Yposition Zposition Zrotation Xrotation Yrotation
          JOINT RightFootToe
          {
            OFFSET 0 0 4
            CHANNELS 6 Xposition Yposition Zposition Zrotation Xrotation Yrotation
            End Site
            {
              OFFSET 0 0 0
            }
          }
        }
      }
    }
  }
}
MOTION
Frames:	3
Frame Time:	0.0111111
-320.772 92.6996 1076.39 -11.2422 -12.9703 146.049 0 8 2.27374e-13 6.0434 16.2614 10.8389 0 8 0 -0.403995 7.27208 2.56037 -5.68434e-14 8 -2.27374e-13 -0.161909 3.64244 1.27846 -5.68434e-14 8 0 -0.161447 3.63418 1.27554 5.68434e-14 17 0 -1.3038 -1.55782 -2.19159 0 10.8 -2.27374e-13 -3.13734 -3.55607 -5.17464 5 17 0 -10.4455 0.334491 3.92896 6.45 0 0 -0.709844 -0.492577 1.0985 6.45 -1.13687e-13 0 20.8181 8.63204 41.8487 0 -32.4 -2 -35.7996 -59.2172 -66.9485 -5.68434e-14 -25.65 2 -42.5998 -50.5249 -35.6813 -0.5 -1.5 2.65 45.2633 -3.79967 25.8262 -5.68434e-14 -3.8 3.7 -0.0689323 24.7825 0.00564635 -5.68434e-14 -3 2.7 -0.00924514 49.5992 0.0163343 1.13687e-13 -1.9 1.6 3.18055e-15 1.98785e-15 3.57812e-15 -1.13687e-13 -8.3 1.9 -31.3396 26.8236 8.31612 1.13687e-13 -4.5 1.13687e-13 -53.0943 0.00338304 -0.00517646 0 -3.4 0 -36.6838 0.00374548 -0.00083714 -0.25 -2.2 0.4 3.18055e-15 1.98785e-15 3.57812e-15 1.13687e-13 -8.3 1 -15.5266 2.40869 0.640578 0 -4.65 -5.68434e-14 -63.6393 -0.0142497 0.00211454 0 -3.3 0 -45.3132 -0.00394516 -0.00589435 -0.5 -2.15 -0.8 3.18055e-15 1.98785e-15 3.57812e-15 -1.13687e-13 -7.75 -0.2 -6.44493 12.1501 0.933128 0 -3.8 -1.13687e-13 -78.5071 0.00167408 -0.00457817 -1.13687e-13 -3.4 -5.68434e-14 -63.4341 0.00335275 -0.000535796 -0.75 -1.75 -1.85 3.18055e-15 1.98785e-15 3.57812e-15 0 -7.15 -1 -1.09758 8.97727 0.246956 0 -3 0 -53.0964 -0.00110813 0.000526038 0 -2.35 0 -36.6792 0.000581217 0.000629414 -5 17 0 -3.16275 2.06264 -4.01882 -6.45 0 0 -1.70186 0.0967922 -1.12956 -6.45 -1.13687e-13 0 -73.4533 -42.0012 -5.69822 -1.13687e-13 -32.4 -2 -20.3886 -25.941 -8.18376 5.68434e-14 -25.65 2 -4.93553 -50.8471 45.4717 0.5 -1.5 2.65 69.2392 3.21142 179.931 1.13687e-13 -3.8 3.7 0.254879 36.2348 0.0211551 0 -3 2.7 0.0136481 6.66639 -0.0173463 0 -1.9 1.6 -3.18055e-15 0 8.15017e-15 0 -8.3 1.9 14.393 -26.9262 2.94696 -8.52651e-14 -4.5 0 9.62859e-20 6.36111e-15 -0.000867266 -5.68434e-14 -3.4 0 -4.43658e-20 -3.18055e-15 -0.000799223 0.25 -2.2 0.4 -3.18055e-15 0 8.15017e-15 0 -8.3 1 11.0299 -22.4502 1.73964 2.84217e-14 -4.65 0 -0.000230357 0.000414504 0.00386517 5.68434e-14 -3.3 0 -0.000230668 0.000407871 0.00231042 0.5 -2.15 -0.8 -3.18055e-15 0 8.15017e-15 0 -7.75 -0.2 7.49809 -15.7614 0.645184 0 -3.8 0 -3.18055e-15 0.00102832 -0 0 -3.4 -1.13687e-13 4.77007e-15 0.00497035 8.74653e-15 0.75 -1.75 -1.85 -3.18055e-15 0 8.15017e-15 0 -7.15 -1 6.55119 -12.618 0.327764 5.68434e-14 -3 -1.13687e-13 -1.5903e-15 0.000551958 2.38542e-15 0 -2.35 0 4.77083e-15 -2.38354e-05 -2.38542e-15 8 -2.84217e-14 0 0.815185 -24.0849 -22.8165 0 -45 -1 -1.83215 27.1666 9.64341 1.13687e-13 -41 -2 -8.66123 -2.48871 7.54271 5.68434e-14 -7.5 12.5 -0 -18.0784 -0 0 8.88178e-16 4 0.286742 14.606 50.5784 -8 0 2.27374e-13 -13.9185 -12.5692 -89.7424 0 -45 -1 0.102664 14.4595 -1.31788 0 -41 -2 4.65456 -3.24297 6.87777 0 -7.5 12.5 -0 -1.21329e-20 -0 0 4.33681e-19 4 4.78212 5.38503 96.2698 
-320.789 92.7043 1076.37 -11.2467 -12.9716 146.018 0 8 0 6.04778 16.2584 10.8539 0 8 -1.13687e-13 -0.406437 7.27162 2.56529 -5.68434e-14 8 0 -0.163252 3.64213 1.27847 5.68434e-14 8 0 -0.162788 3.63387 1.27555 0 17 0 -1.30693 -1.54891 -2.19595 -5.68434e-14 10.8 -1.13687e-13 -3.14426 -3.53491 -5.18462 5 17 1.13687e-13 -10.4383 0.334847 3.92993 6.45 0 0 -0.70979 -0.492546 1.10276 6.45 -1.13687e-13 -1.13687e-13 20.8817 8.55268 41.8368 0 -32.4 -2 -35.4531 -59.0643 -66.4751 -5.68434e-14 -25.65 2 -42.9668 -50.6427 -35.878 -0.5 -1.5 2.65 45.0846 -3.88003 25.7637 -5.68434e-14 -3.8 3.7 -0.0698782 24.4749 0.00525878 0 -3 2.7 -0.00924906 49.6062 0.0182027 -1.13687e-13 -1.9 1.6 -3.31043e-32 3.18055e-15 5.96354e-16 0 -8.3 1.9 -31.1278 26.8876 8.28199 -2.27374e-13 -4.5 0 -53.0593 0.00420384 -0.00616516 0 -3.4 0 -36.6582 0.005079 -0.00175674 -0.25 -2.2 0.4 -3.31043e-32 3.18055e-15 5.96354e-16 0 -8.3 1 -15.3254 2.51845 0.650217 1.13687e-13 -4.65 0 -63.7558 -0.0155141 0.00271837 0 -3.3 0 -45.4204 -0.0051491 -0.00433153 -0.5 -2.15 -0.8 -3.31043e-32 3.18055e-15 5.96354e-16 1.13687e-13 -7.75 -0.2 -6.32805 12.0874 0.914186 1.13687e-13 -3.8 -5.68434e-14 -78.7353 0.00350267 -0.00590187 -1.13687e-13 -3.4 -5.68434e-14 -63.8013 0.00472242 0.000203849 -0.75 -1.75 -1.85 -3.31043e-32 3.18055e-15 5.96354e-16 0 -7.15 -1 -1.10298 9.00682 0.249215 0 -3 0 -53.0535 -0.00209843 0.000531619 0 -2.35 0 -36.6482 -0.000371878 0.000499855 -5 17 -1.13687e-13 -3.04601 2.15891 -3.80327 -6.45 -1.13687e-13 0 -1.73488 0.0946138 -1.21924 -6.45 0 0 -73.6775 -41.9109 -5.85701 0 -32.4 -2 -20.3687 -25.8676 -8.16351 5.68434e-14 -25.65 2 -5.03862 -50.9329 45.393 0.5 -1.5 2.65 69.2851 3.19006 179.903 0 -3.8 3.7 0.254869 36.2404 0.0211512 0 -3 2.7 0.0136477 6.66639 -0.0173462 -2.84217e-14 -1.9 1.6 1.59028e-15 1.59028e-15 4.37326e-15 -2.84217e-14 -8.3 1.9 14.4388 -26.9535 2.96016 0 -4.5 1.13687e-13 -9.54166e-15 0 -0.000865636 2.84217e-14 -3.4 0 3.18047e-15 -6.36111e-15 -0.000797721 0.25 -2.2 0.4 1.59028e-15 1.59028e-15 4.37326e-15 0 -8.3 1 11.0488 -22.4692 1.74441 2.84217e-14 -4.65 1.13687e-13 -0.000231835 0.000413863 0.00385404 0 -3.3 0 -0.000232148 0.00040724 0.00230533 0.5 -2.15 -0.8 1.59028e-15 1.59028e-15 4.37326e-15 2.84217e-14 -7.75 -0.2 7.48084 -15.7705 0.64331 -2.84217e-14 -3.8 0 -1.59016e-15 0.00102644 -6.36111e-15 5.68434e-14 -3.4 0 4.12789e-19 0.00495742 -4.77083e-15 0.75 -1.75 -1.85 1.59028e-15 1.59028e-15 4.37326e-15 -2.84217e-14 -7.15 -1 6.51026 -12.6256 0.323909 0 -3 0 -3.06502e-20 0.000552145 3.18055e-15 2.84217e-14 -2.35 0 3.18056e-15 -2.44163e-05 2.38542e-15 8 0 0 0.782216 -24.0804 -22.8774 0 -45 -1 -1.83816 27.187 9.66538 0 -41 -2 -8.65187 -2.47618 7.57064 0 -7.5 12.5 5.75258e-17 -18.1235 -1.00398e-14 5.68434e-14 8.88178e-16 4 0.244345 14.6497 50.592 -8 5.68434e-14 0 -13.899 -12.5617 -89.7801 0 -45 -1 0.10133 14.3852 -1.30824 -2.27374e-13 -41 -2 4.65805 -3.17907 6.90708 -2.27374e-13 -7.5 12.5 -9.70628e-20 2.42657e-20 -3.18055e-15 0 0 4 4.75899 5.38312 96.2714 
-320.806 92.7056 1076.34 -11.2511 -12.9695 145.998 5.68434e-14 8 0 6.05291 16.2562 10.8718 -5.68434e-14 8 0 -0.409175 7.27113 2.57244 -5.68434e-14 8 0 -0.164603 3.64181 1.27859 0 8 -1.13687e-13 -0.164136 3.63355 1.27566 5.68434e-14 17 0 -1.30352 -1.53966 -2.20556 -5.68434e-14 10.8 -1.13687e-13 -3.13608 -3.51321 -5.20655 5 17 0 -10.4292 0.334663 3.9309 6.45 0 1.13687e-13 -0.709816 -0.492596 1.10392 6.45 0 0 20.9209 8.40698 41.8854 1.13687e-13 -32.4 -2 -35.0777 -58.8476 -65.9237 0 -25.65 2 -43.1512 -50.8542 -35.9284 -0.5 -1.5 2.65 44.8951 -4.08566 25.2847 0 -3.8 3.7 -0.0700934 24.1978 0.00502925 8.52651e-14 -3 2.7 -0.00999574 49.7675 0.0265049 -1.13687e-13 -1.9 1.6 -3.18055e-15 1.78906e-15 3.37934e-15 2.27374e-13 -8.3 1.9 -30.7637 26.8708 8.17908 0 -4.5 -1.13687e-13 -53.2481 0.00746528 -0.0177614 -1.13687e-13 -3.4 0 -36.8007 0.0122132 -0.00712318 -0.25 -2.2 0.4 -3.18055e-15 1.78906e-15 3.37934e-15 1.13687e-13 -8.3 1 -15.0628 2.45912 0.63156 1.13687e-13 -4.65 0 -63.762 -0.0167017 0.00387521 -1.13687e-13 -3.3 -5.68434e-14 -45.4261 -0.00663042 -0.00264781 -0.5 -2.15 -0.8 -3.18055e-15 1.78906e-15 3.37934e-15 0 -7.75 -0.2 -6.16362 11.9548 0.882403 -1.13687e-13 -3.8 0 -78.8794 0.00500833 -0.00678621 0 -3.4 0 -64.0391 0.00891188 0.000912246 -0.75 -1.75 -1.85 -3.18055e-15 1.78906e-15 3.37934e-15 0 -7.15 -1 -1.06752 8.8642 0.236317 -1.13687e-13 -3 0 -52.961 -0.00299859 0.0052773 2.27374e-13 -2.35 1.13687e-13 -36.5823 -0.00313399 0.00238106 -5 17 -1.13687e-13 -2.91547 2.27283 -3.55518 -6.45 0 0 -1.76351 0.0933497 -1.30988 -6.45 0 0 -73.9208 -41.7713 -6.0578 0 -32.4 -2 -20.3688 -25.8096 -8.14336 0 -25.65 2 -5.12447 -51.0111 45.3458 0.5 -1.5 2.65 69.3253 3.15612 179.863 0 -3.8 3.7 0.254853 36.2561 0.02115 0 -3 2.7 0.0136472 6.66639 -0.0173461 0 -1.9 1.6 -9.37955e-32 1.59028e-15 3.37934e-15 0 -8.3 1.9 14.4953 -26.9872 2.97645 -5.68434e-14 -4.5 -1.13687e-13 -6.36116e-15 -3.18055e-15 -0.000863975 0 -3.4 -1.13687e-13 -3.1806e-15 -3.18055e-15 -0.000796191 0.25 -2.2 0.4 -9.37955e-32 1.59028e-15 3.37934e-15 2.84217e-14 -8.3 1 11.0754 -22.4951 1.75101 -5.68434e-14 -4.65 1.13687e-13 -0.000233309 0.000413205 0.00384289 0 -3.3 0 -0.000233625 0.000406593 0.00230018 0.5 -2.15 -0.8 -9.37955e-32 1.59028e-15 3.37934e-15 0 -7.75 -0.2 7.46768 -15.7849 0.642494 2.84217e-14 -3.8 1.13687e-13 -1.59025e-15 0.00102452 -1.59028e-15 0 -3.4 0 4.11707e-19 0.00494443 -4.77083e-15 0.75 -1.75 -1.85 -9.37955e-32 1.59028e-15 3.37934e-15 2.84217e-14 -7.15 -1 6.47312 -12.6388 0.32067 0 -3 0 -1.59025e-15 0.000552288 -2.38542e-15 0 -2.35 -1.13687e-13 -1.59028e-15 -2.4982e-05 2.38542e-15 8 0 0 0.748358 -24.0836 -22.9294 1.13687e-13 -45 -1 -1.84606 27.2209 9.69056 0 -41 -2 -8.63757 -2.45885 7.56557 0 -7.5 12.5 2.08814e-15 -18.1733 6.69508e-15 0 0 4 0.192409 14.6955 50.6064 -8 0 0 -13.8925 -12.5522 -89.8205 2.27374e-13 -45 -1 0.100141 14.3343 -1.29998 0 -41 -2 4.66066 -3.12975 6.93206 2.27374e-13 -7.5 12.5 3.88251e-19 1.94126e-19 -3.18055e-15 -2.27374e-13 0 4 4.73947 5.37955 96.2743 
